HIERARCHY
ROOT Hips
{
	OFFSET 0.00000 0.00000 0.00000
	CHANNELS 6 Xposition Yposition Zposition Zrotation Yrotation Xrotation 
	JOINT LHipJoint
	{
		OFFSET 0 0 0
		CHANNELS 3 Zrotation Yrotation Xrotation
		JOINT LeftHip
		{
			OFFSET 1.86795 -1.59681 0.65681
			CHANNELS 3 Zrotation Yrotation Xrotation
			JOINT LeftKnee
			{
				OFFSET 2.30491 -6.33268 0.00000
				CHANNELS 3 Zrotation Yrotation Xrotation
				JOINT LeftAnkle
				{
					OFFSET 2.46780 -6.78022 0.00000
					CHANNELS 3 Zrotation Yrotation Xrotation
					JOINT LeftToe
					{
						OFFSET 0.07897 -0.21698 1.59652
						CHANNELS 3 Zrotation Yrotation Xrotation
						End Site
						{
							OFFSET 0.00000 -0.00000 0.82310
						}
					}
				}
			}
		}
	}
	JOINT RHipJoint
	{
		OFFSET 0 0 0
		CHANNELS 3 Zrotation Yrotation Xrotation
		JOINT RightHip
		{
			OFFSET -1.93650 -1.59681 0.65681
			CHANNELS 3 Zrotation Yrotation Xrotation
			JOINT RightKnee
			{
				OFFSET -2.29410 -6.30299 0.00000
				CHANNELS 3 Zrotation Yrotation Xrotation
				JOINT RightAnkle
				{
					OFFSET -2.48738 -6.83403 0.00000
					CHANNELS 3 Zrotation Yrotation Xrotation
					JOINT RightToe
					{
						OFFSET -0.08699 -0.23899 1.89395
						CHANNELS 3 Zrotation Yrotation Xrotation
						End Site
						{
							OFFSET -0.00000 -0.00000 0.96904
						}
					}
				}
			}
		}
	}
	JOINT lowerback
	{
		OFFSET 0 0 0
		CHANNELS 3 Zrotation Yrotation Xrotation
		JOINT Chest
		{
			OFFSET 0.03629 1.99740 -0.07548
			CHANNELS 3 Zrotation Yrotation Xrotation
			JOINT Chest2
			{
				OFFSET 0.03970 1.94298 0.17218
				CHANNELS 3 Zrotation Yrotation Xrotation
				JOINT lowerneck
				{
					OFFSET 0 0 0
					CHANNELS 3 Zrotation Yrotation Xrotation
					JOINT Neck
					{
						OFFSET -0.05054 1.79469 0.04241
						CHANNELS 3 Zrotation Yrotation Xrotation
						JOINT Head
						{
							OFFSET 0.05195 1.78475 -0.22133
							CHANNELS 3 Zrotation Yrotation Xrotation
							End Site
							{
								OFFSET 0.02420 1.80711 -0.07950
							}
						}
					}
				}
				JOINT LeftCollar
				{
					OFFSET 0 0 0
					CHANNELS 3 Zrotation Yrotation Xrotation
					JOINT LeftShoulder
					{
						OFFSET 2.92134 1.19850 0.36056
CHANNELS 3 Zrotation Xrotation Yrotation
						JOINT LeftElbow
						{
OFFSET 0 -4.841370 0.000000
CHANNELS 3 Zrotation Xrotation Yrotation
							JOINT LeftWrist
							{
OFFSET 0 -3.245200 -0.000000
CHANNELS 3 Zrotation Xrotation Yrotation
								JOINT lhand
								{
									OFFSET 0 0 0
CHANNELS 3 Zrotation Xrotation Yrotation
									JOINT LFingers
									{
OFFSET 0 -0.521220 0.000000
CHANNELS 3 Zrotation Xrotation Yrotation
										End Site
										{
OFFSET 0 -0.420220 0.000000
										}
									}
								}
								JOINT LThumb
								{
OFFSET 0 0.000000 0.000000
CHANNELS 3 Zrotation Xrotation Yrotation
									End Site
									{
OFFSET 0 -0.426640 0.426640
									}
								}
							}
						}
					}
				}
				JOINT RightCollar
				{
					OFFSET 0 0 0
					CHANNELS 3 Zrotation Yrotation Xrotation
					JOINT RightShoulder
					{
						OFFSET -2.84327 1.20795 0.50191
CHANNELS 3 Zrotation Xrotation Yrotation
						JOINT RightElbow
						{
OFFSET 0 -4.722840 0.000000
CHANNELS 3 Zrotation Xrotation Yrotation
							JOINT RightWrist
							{
OFFSET 0 -3.234590 0.000000
CHANNELS 3 Zrotation Xrotation Yrotation
								JOINT rhand
								{
									OFFSET 0 0 0
CHANNELS 3 Zrotation Xrotation Yrotation
									JOINT RFingers
									{
OFFSET 0 -0.307420 0.000000
CHANNELS 3 Zrotation Xrotation Yrotation
										End Site
										{
OFFSET 0 -0.247850 0.000000
										}
									}
								}
								JOINT RThumb
								{
OFFSET 0 0.000000 0.000000
CHANNELS 3 Zrotation Xrotation Yrotation
									End Site
									{
OFFSET 0 -0.251630 0.251630
									}
								}
							}
						}
					}
				}
			}
		}
	}
}
MOTION
Frames: 10
Frame Time: 0.008333333333333333
5.708700 16.084200 -8.217300 -1.609000 2.593900 3.317000 0.000000 0.000000 0.000000 -5.659700 -11.959100 -13.368300 2.371400 9.600300 27.691900 0.856800 3.268200 -18.961100 2.128200 -9.128200 -26.197200 0.000000 0.000000 0.000000 23.321300 8.036900 -8.002000 -2.935300 -10.589500 30.907600 -0.405300 -20.785000 -32.080300 -0.835300 -5.830300 16.292800 0.975300 -1.179700 -3.791300 1.715500 -1.460900 -9.553500 1.303000 -0.718300 -7.856500 -4.370900 0.149500 -1.155500 8.222800 0.487600 -4.475200 3.433000 0.211900 -1.259500 0.000000 -0.000000 0.000000 107.579900 -26.136900 30.277900 14.875700 -23.972700 3.175300 -20.206400 14.073800 -50.024900 0.000000 0.000000 0.000000 -7.125000 0.000000 0.000000 -78.418200 63.745000 48.386600 0.000000 -0.000000 0.000000 -139.952900 -34.491500 -57.179000 -13.094400 -21.425300 -2.487700 16.249600 2.672100 -16.417500 0.000000 0.000000 0.000000 7.125000 0.000000 -0.000000 28.172300 13.962200 23.665200
5.700302 16.087168 -8.234757 -1.809376 2.643820 3.391329 0.000000 0.000000 0.000000 -5.418271 -12.548914 -12.968333 2.292664 9.450738 27.215649 0.800248 4.095848 -18.866788 2.208565 -9.287429 -26.698795 0.000000 0.000000 0.000000 23.621920 8.342195 -7.896987 -2.891195 -10.516752 30.666845 -0.346774 -21.110001 -32.115552 -0.840398 -5.847164 16.341765 1.283253 -1.227497 -3.820502 1.843418 -1.511666 -9.688971 1.270447 -0.760175 -7.994590 -4.881415 0.070593 -1.003966 8.557269 0.370370 -4.166656 3.647725 0.158219 -1.184178 0.000000 0.000000 0.000000 106.972928 -25.579629 29.122778 14.928095 -24.045798 3.196618 -20.411605 12.632328 -50.701051 0.000000 0.000000 0.000000 -7.125000 0.000000 0.000000 -79.795288 63.910896 49.973725 0.000000 0.000000 0.000000 -138.747348 -34.579171 -55.284835 -12.796795 -20.988716 -2.380059 15.475114 1.323903 -16.006151 0.000000 0.000000 0.000000 7.125000 0.000000 0.000000 27.806829 14.382572 22.970514
5.694414 16.094137 -8.254602 -1.601553 2.658953 3.475206 0.000000 0.000000 0.000000 -5.651999 -12.910311 -12.697016 2.209985 9.290321 26.707745 0.750729 4.928211 -18.885908 2.537171 -9.905026 -28.669841 0.000000 0.000000 0.000000 23.412249 8.309036 -7.997020 -2.872459 -10.485678 30.564226 -0.169566 -21.610138 -31.622184 -0.711069 -5.388540 15.020340 1.243557 -1.218075 -3.617116 1.777825 -1.497891 -9.744657 1.230290 -0.752934 -8.174775 -5.015941 -0.234264 -1.557448 8.666669 -0.039517 -3.797988 3.708322 -0.029157 -0.936417 0.000000 0.000000 0.000000 106.780983 -25.334469 29.198777 14.714017 -23.746170 3.109854 -20.219706 12.847933 -50.782290 0.000000 0.000000 0.000000 -7.125000 0.000000 0.000000 -79.822081 63.995856 50.126095 0.000000 0.000000 0.000000 -137.465192 -33.898758 -51.668067 -12.787241 -20.974571 -2.376624 15.766241 -1.341628 -16.259074 0.000000 0.000000 0.000000 7.125000 0.000000 0.000000 27.927893 14.135073 23.275203
5.682820 16.103927 -8.266425 -1.379252 2.574945 3.668679 0.000000 0.000000 0.000000 -5.880447 -13.183497 -12.351621 2.100276 9.071759 26.020108 0.670384 5.777447 -18.636696 2.708848 -10.207226 -29.651248 0.000000 0.000000 0.000000 23.126658 8.228461 -8.428531 -2.907912 -10.544381 30.758333 -0.107671 -21.817680 -31.494563 -0.541226 -4.712481 13.090432 1.158477 -1.169910 -3.553537 1.689111 -1.437559 -9.824168 1.185975 -0.720432 -8.300059 -5.011665 -0.618671 -1.964036 8.732926 -0.533425 -3.907509 3.729270 -0.268297 -0.861530 0.000000 0.000000 0.000000 106.466589 -25.211300 29.862393 14.656236 -23.664986 3.086627 -21.486640 12.834985 -50.642359 0.000000 0.000000 0.000000 -7.125000 0.000000 0.000000 -80.382038 63.562753 50.038427 0.000000 0.000000 0.000000 -136.251364 -33.847924 -48.947832 -12.673685 -20.807194 -2.336093 14.720169 -4.949026 -14.668205 0.000000 0.000000 0.000000 7.125000 0.000000 0.000000 27.604627 15.644020 21.881750
5.662622 16.113865 -8.286321 -1.406370 2.419236 4.196413 0.000000 0.000000 0.000000 -5.652744 -13.860993 -12.448113 2.024837 8.917570 25.537842 0.736637 5.743617 -19.298936 2.081831 -9.033252 -25.900277 0.000000 0.000000 0.000000 23.077694 8.250574 -9.249085 -2.916947 -10.559294 30.807595 -0.021294 -21.711341 -30.776342 -0.567712 -4.824261 13.408355 1.365809 -1.071136 -3.849175 1.557740 -1.314357 -9.977878 0.924027 -0.682042 -8.308545 -4.503641 -1.048329 -1.454637 8.553163 -1.057207 -5.162167 3.585597 -0.561128 -1.318404 0.000000 0.000000 0.000000 106.347604 -25.322560 30.106902 14.596295 -23.580718 3.062569 -21.724440 13.373479 -50.195915 0.000000 0.000000 0.000000 -7.125000 0.000000 0.000000 -79.729198 63.342326 49.065683 0.000000 0.000000 0.000000 -134.934480 -34.051774 -47.155394 -12.290679 -20.239114 -2.201875 13.122771 -8.056966 -13.314961 0.000000 0.000000 0.000000 7.125000 0.000000 0.000000 26.904410 16.954884 20.277271
5.645762 16.123934 -8.302544 -1.245359 2.115438 4.436010 0.000000 0.000000 0.000000 -5.800043 -14.177239 -12.255270 1.958647 8.779308 25.107456 0.635393 7.010124 -19.213243 2.478642 -9.798316 -28.326602 0.000000 0.000000 0.000000 22.863602 8.286026 -9.494237 -2.882185 -10.501908 30.617772 -0.061453 -21.335121 -30.536660 -0.574220 -4.852812 13.489248 1.499420 -0.919544 -3.713248 1.361971 -1.118695 -10.012727 0.640267 -0.605081 -8.433941 -4.602571 -1.706702 -1.861672 8.909891 -1.892566 -5.527964 3.729917 -0.975184 -1.300308 0.000000 0.000000 0.000000 106.321959 -25.518686 30.739914 14.483055 -23.421105 3.017442 -22.542153 13.513494 -49.128463 0.000000 0.000000 0.000000 -7.125000 0.000000 0.000000 -78.392408 62.724725 46.831503 0.000000 0.000000 0.000000 -133.557781 -33.818103 -44.173072 -11.961370 -19.746748 -2.089249 13.521045 -13.037827 -12.774487 0.000000 0.000000 0.000000 7.125000 0.000000 0.000000 27.237289 17.430507 20.271796
5.609269 16.130871 -8.328644 -1.311462 2.002650 4.752469 0.000000 0.000000 0.000000 -5.513788 -15.084140 -12.036656 1.882413 8.616728 24.603624 0.603731 7.562216 -19.339898 1.870781 -8.590845 -24.524132 0.000000 0.000000 0.000000 23.031125 8.762361 -9.753186 -2.847599 -10.444127 30.427342 -0.036701 -21.397457 -30.452400 -0.627359 -5.068181 14.103155 1.695788 -0.853274 -3.685673 1.261036 -1.033756 -9.987634 0.421445 -0.583257 -8.428333 -4.776321 -2.219948 -2.582618 9.216591 -2.526256 -5.866115 3.863132 -1.278818 -1.228378 0.000000 0.000000 0.000000 106.197754 -25.529390 30.943427 14.427485 -23.342480 2.995404 -22.621329 13.851206 -49.194749 0.000000 0.000000 0.000000 -7.125000 0.000000 0.000000 -78.561023 62.725029 46.994540 0.000000 0.000000 0.000000 -131.834474 -34.013976 -41.832563 -11.785785 -19.482535 -2.030244 14.202501 -17.801138 -11.986571 0.000000 0.000000 0.000000 7.125000 0.000000 0.000000 27.788459 18.114854 20.316303
5.570127 16.145668 -8.365961 -1.179509 1.901019 5.029267 0.000000 0.000000 0.000000 -5.444552 -15.881304 -11.692109 1.755593 8.337056 23.742757 0.460719 9.084989 -19.197444 2.062491 -8.994994 -25.779731 0.000000 0.000000 0.000000 22.955562 8.786133 -10.354232 -2.864960 -10.473170 30.523097 0.103147 -21.857237 -30.125469 -0.448414 -4.294620 11.907376 1.599265 -0.784481 -3.583479 1.232565 -0.945292 -9.838074 0.440903 -0.532757 -8.319188 -5.488754 -2.617161 -2.565598 9.822335 -2.938821 -7.221615 4.244927 -1.492466 -1.626443 0.000000 0.000000 0.000000 106.091395 -24.701492 29.064356 14.608782 -23.598228 3.067639 -22.337463 11.672266 -50.169407 0.000000 0.000000 0.000000 -7.125000 0.000000 0.000000 -80.083985 63.147451 49.123928 0.000000 0.000000 0.000000 -130.145977 -33.524875 -38.634837 -12.083870 -19.930142 -2.130869 15.586634 -24.266612 -11.067915 0.000000 0.000000 0.000000 7.125000 0.000000 0.000000 28.787914 18.869270 20.716172
5.532966 16.140578 -8.386557 -1.027526 1.705633 5.178708 0.000000 0.000000 0.000000 -5.474170 -16.759086 -10.960150 1.622953 8.032022 22.811329 0.476075 9.437369 -19.707977 1.463849 -7.646158 -21.644445 0.000000 0.000000 0.000000 22.870025 9.002007 -10.649935 -2.896823 -10.526145 30.697879 0.136262 -21.851107 -29.884871 -0.454523 -4.323997 11.990159 1.617679 -0.745647 -3.305953 1.174470 -0.893571 -9.685876 0.369548 -0.510957 -8.312943 -5.665723 -2.935715 -2.552317 10.016243 -3.261809 -8.656290 4.384367 -1.667182 -2.071973 0.000000 0.000000 0.000000 105.913784 -24.102309 28.596691 14.481687 -23.419043 3.016949 -21.860861 12.000182 -50.208608 0.000000 0.000000 0.000000 -7.125000 0.000000 0.000000 -79.844064 63.305457 49.122239 0.000000 0.000000 0.000000 -128.041479 -33.332374 -34.740885 -12.901834 -21.142242 -2.418465 15.752370 -31.148401 -10.694137 0.000000 0.000000 0.000000 7.125000 0.000000 0.000000 28.961041 19.196960 20.633625
5.490829 16.152292 -8.415553 -1.184764 1.304628 5.547489 0.000000 0.000000 0.000000 -5.081170 -17.390997 -10.681781 1.525116 7.797599 22.101118 0.363040 10.392454 -19.474210 1.399739 -7.484317 -21.158335 0.000000 0.000000 0.000000 23.110343 9.552958 -11.055207 -2.880221 -10.498523 30.606721 0.320328 -22.209520 -29.084348 -0.381458 -3.965877 10.980724 1.921022 -0.632138 -3.093620 1.276250 -0.724658 -9.677778 0.304130 -0.446690 -8.431202 -5.941915 -3.070924 -2.782696 10.602509 -3.327096 -9.530449 4.203533 -1.727798 -2.046960 0.000000 0.000000 0.000000 105.402306 -23.898612 29.864053 14.024826 -22.770189 2.837758 -20.349672 15.112238 -50.893180 0.000000 0.000000 0.000000 -7.125000 0.000000 0.000000 -80.112391 63.992546 50.406119 0.000000 0.000000 0.000000 -125.260164 -32.668285 -29.400977 -15.007644 -24.154861 -3.230115 15.757040 -38.463354 -10.262987 0.000000 0.000000 0.000000 7.125000 0.000000 0.000000 29.053916 19.586203 20.419102
